<?xml version="1.0" encoding="UTF-8" standalone="no"?>
<!DOCTYPE svg PUBLIC "-//W3C//DTD SVG 1.1//EN"
 "http://www.w3.org/Graphics/SVG/1.1/DTD/svg11.dtd">
<!-- Generated by graphviz version 2.36.0 (20140111.2315)
 -->
<!-- Title: controllers_diagram Pages: 1 -->
<svg width="613pt" height="618pt"
 viewBox="0.00 0.00 613.00 618.00" xmlns="http://www.w3.org/2000/svg" xmlns:xlink="http://www.w3.org/1999/xlink">
<g id="graph0" class="graph" transform="scale(1 1) rotate(0) translate(4 614)">
<title>controllers_diagram</title>
<polygon fill="none" stroke="none" points="-4,4 -4,-614 609,-614 609,4 -4,4"/>
<!-- _diagram_info -->
<g id="node1" class="node"><title>_diagram_info</title>
<text text-anchor="start" x="332" y="-81.6" font-family="Times,serif" font-size="13.00">Controllers diagram</text>
<text text-anchor="start" x="332" y="-67.6" font-family="Times,serif" font-size="13.00">Date: Dec 05 2015 &#45; 18:11</text>
<text text-anchor="start" x="332" y="-53.6" font-family="Times,serif" font-size="13.00">Migration version: 20151117173457</text>
<text text-anchor="start" x="332" y="-39.6" font-family="Times,serif" font-size="13.00">Generated by RailRoady 1.4.1</text>
<text text-anchor="start" x="332" y="-25.6" font-family="Times,serif" font-size="13.00">http://railroady.prestonlee.com</text>
</g>
<!-- SessionsController -->
<g id="node2" class="node"><title>SessionsController</title>
<path fill="none" stroke="black" d="M498,-126.5C498,-126.5 593,-126.5 593,-126.5 599,-126.5 605,-132.5 605,-138.5 605,-138.5 605,-237.5 605,-237.5 605,-243.5 599,-249.5 593,-249.5 593,-249.5 498,-249.5 498,-249.5 492,-249.5 486,-243.5 486,-237.5 486,-237.5 486,-138.5 486,-138.5 486,-132.5 492,-126.5 498,-126.5"/>
<text text-anchor="middle" x="545.5" y="-234.3" font-family="Times,serif" font-size="14.00">SessionsController</text>
<polyline fill="none" stroke="black" points="486,-226.5 605,-226.5 "/>
<text text-anchor="start" x="494" y="-211.3" font-family="Times,serif" font-size="14.00">create</text>
<text text-anchor="start" x="494" y="-196.3" font-family="Times,serif" font-size="14.00">destroy</text>
<text text-anchor="start" x="494" y="-181.3" font-family="Times,serif" font-size="14.00">new</text>
<polyline fill="none" stroke="black" points="486,-173.5 605,-173.5 "/>
<polyline fill="none" stroke="black" points="486,-149.5 605,-149.5 "/>
<text text-anchor="start" x="494" y="-134.3" font-family="Times,serif" font-size="14.00">_layout</text>
</g>
<!-- WelcomesController -->
<g id="node3" class="node"><title>WelcomesController</title>
<path fill="none" stroke="black" d="M336,-126.5C336,-126.5 443,-126.5 443,-126.5 449,-126.5 455,-132.5 455,-138.5 455,-138.5 455,-327.5 455,-327.5 455,-333.5 449,-339.5 443,-339.5 443,-339.5 336,-339.5 336,-339.5 330,-339.5 324,-333.5 324,-327.5 324,-327.5 324,-138.5 324,-138.5 324,-132.5 330,-126.5 336,-126.5"/>
<text text-anchor="middle" x="389.5" y="-324.3" font-family="Times,serif" font-size="14.00">WelcomesController</text>
<polyline fill="none" stroke="black" points="324,-316.5 455,-316.5 "/>
<text text-anchor="start" x="332" y="-301.3" font-family="Times,serif" font-size="14.00">create</text>
<text text-anchor="start" x="332" y="-286.3" font-family="Times,serif" font-size="14.00">destroy</text>
<text text-anchor="start" x="332" y="-271.3" font-family="Times,serif" font-size="14.00">edit</text>
<text text-anchor="start" x="332" y="-256.3" font-family="Times,serif" font-size="14.00">index</text>
<text text-anchor="start" x="332" y="-241.3" font-family="Times,serif" font-size="14.00">new</text>
<text text-anchor="start" x="332" y="-226.3" font-family="Times,serif" font-size="14.00">show</text>
<text text-anchor="start" x="332" y="-211.3" font-family="Times,serif" font-size="14.00">update</text>
<polyline fill="none" stroke="black" points="324,-203.5 455,-203.5 "/>
<polyline fill="none" stroke="black" points="324,-179.5 455,-179.5 "/>
<text text-anchor="start" x="332" y="-164.3" font-family="Times,serif" font-size="14.00">_layout</text>
<text text-anchor="start" x="332" y="-149.3" font-family="Times,serif" font-size="14.00">set_welcome</text>
<text text-anchor="start" x="332" y="-134.3" font-family="Times,serif" font-size="14.00">welcome_params</text>
</g>
<!-- UsersController -->
<g id="node4" class="node"><title>UsersController</title>
<path fill="none" stroke="black" d="M48,-162.5C48,-162.5 127,-162.5 127,-162.5 133,-162.5 139,-168.5 139,-174.5 139,-174.5 139,-348.5 139,-348.5 139,-354.5 133,-360.5 127,-360.5 127,-360.5 48,-360.5 48,-360.5 42,-360.5 36,-354.5 36,-348.5 36,-348.5 36,-174.5 36,-174.5 36,-168.5 42,-162.5 48,-162.5"/>
<text text-anchor="middle" x="87.5" y="-345.3" font-family="Times,serif" font-size="14.00">UsersController</text>
<polyline fill="none" stroke="black" points="36,-337.5 139,-337.5 "/>
<text text-anchor="start" x="44" y="-322.3" font-family="Times,serif" font-size="14.00">create</text>
<text text-anchor="start" x="44" y="-307.3" font-family="Times,serif" font-size="14.00">destroy</text>
<text text-anchor="start" x="44" y="-292.3" font-family="Times,serif" font-size="14.00">edit</text>
<text text-anchor="start" x="44" y="-277.3" font-family="Times,serif" font-size="14.00">index</text>
<text text-anchor="start" x="44" y="-262.3" font-family="Times,serif" font-size="14.00">new</text>
<text text-anchor="start" x="44" y="-247.3" font-family="Times,serif" font-size="14.00">show</text>
<text text-anchor="start" x="44" y="-232.3" font-family="Times,serif" font-size="14.00">update</text>
<polyline fill="none" stroke="black" points="36,-224.5 139,-224.5 "/>
<polyline fill="none" stroke="black" points="36,-200.5 139,-200.5 "/>
<text text-anchor="start" x="44" y="-185.3" font-family="Times,serif" font-size="14.00">_layout</text>
<text text-anchor="start" x="44" y="-170.3" font-family="Times,serif" font-size="14.00">user_params</text>
</g>
<!-- ApplicationController -->
<g id="node5" class="node"><title>ApplicationController</title>
<path fill="none" stroke="black" d="M12,-0.5C12,-0.5 124,-0.5 124,-0.5 130,-0.5 136,-6.5 136,-12.5 136,-12.5 136,-111.5 136,-111.5 136,-117.5 130,-123.5 124,-123.5 124,-123.5 12,-123.5 12,-123.5 6,-123.5 0,-117.5 0,-111.5 0,-111.5 0,-12.5 0,-12.5 0,-6.5 6,-0.5 12,-0.5"/>
<text text-anchor="middle" x="68" y="-108.3" font-family="Times,serif" font-size="14.00">ApplicationController</text>
<polyline fill="none" stroke="black" points="0,-100.5 136,-100.5 "/>
<text text-anchor="start" x="8" y="-85.3" font-family="Times,serif" font-size="14.00">logged_in_user</text>
<polyline fill="none" stroke="black" points="0,-77.5 136,-77.5 "/>
<polyline fill="none" stroke="black" points="0,-53.5 136,-53.5 "/>
<text text-anchor="start" x="8" y="-38.3" font-family="Times,serif" font-size="14.00">_layout</text>
<text text-anchor="start" x="8" y="-23.3" font-family="Times,serif" font-size="14.00">current_cart</text>
<text text-anchor="start" x="8" y="-8.3" font-family="Times,serif" font-size="14.00">log_out</text>
</g>
<!-- LineItemsController -->
<g id="node6" class="node"><title>LineItemsController</title>
<path fill="none" stroke="black" d="M408,-378.5C408,-378.5 512,-378.5 512,-378.5 518,-378.5 524,-384.5 524,-390.5 524,-390.5 524,-579.5 524,-579.5 524,-585.5 518,-591.5 512,-591.5 512,-591.5 408,-591.5 408,-591.5 402,-591.5 396,-585.5 396,-579.5 396,-579.5 396,-390.5 396,-390.5 396,-384.5 402,-378.5 408,-378.5"/>
<text text-anchor="middle" x="460" y="-576.3" font-family="Times,serif" font-size="14.00">LineItemsController</text>
<polyline fill="none" stroke="black" points="396,-568.5 524,-568.5 "/>
<text text-anchor="start" x="404" y="-553.3" font-family="Times,serif" font-size="14.00">create</text>
<text text-anchor="start" x="404" y="-538.3" font-family="Times,serif" font-size="14.00">destroy</text>
<text text-anchor="start" x="404" y="-523.3" font-family="Times,serif" font-size="14.00">edit</text>
<text text-anchor="start" x="404" y="-508.3" font-family="Times,serif" font-size="14.00">index</text>
<text text-anchor="start" x="404" y="-493.3" font-family="Times,serif" font-size="14.00">new</text>
<text text-anchor="start" x="404" y="-478.3" font-family="Times,serif" font-size="14.00">show</text>
<text text-anchor="start" x="404" y="-463.3" font-family="Times,serif" font-size="14.00">update</text>
<polyline fill="none" stroke="black" points="396,-455.5 524,-455.5 "/>
<polyline fill="none" stroke="black" points="396,-431.5 524,-431.5 "/>
<text text-anchor="start" x="404" y="-416.3" font-family="Times,serif" font-size="14.00">_layout</text>
<text text-anchor="start" x="404" y="-401.3" font-family="Times,serif" font-size="14.00">line_item_params</text>
<text text-anchor="start" x="404" y="-386.3" font-family="Times,serif" font-size="14.00">set_line_item</text>
</g>
<!-- ProductsController -->
<g id="node7" class="node"><title>ProductsController</title>
<path fill="none" stroke="black" d="M246,-396.5C246,-396.5 341,-396.5 341,-396.5 347,-396.5 353,-402.5 353,-408.5 353,-408.5 353,-597.5 353,-597.5 353,-603.5 347,-609.5 341,-609.5 341,-609.5 246,-609.5 246,-609.5 240,-609.5 234,-603.5 234,-597.5 234,-597.5 234,-408.5 234,-408.5 234,-402.5 240,-396.5 246,-396.5"/>
<text text-anchor="middle" x="293.5" y="-594.3" font-family="Times,serif" font-size="14.00">ProductsController</text>
<polyline fill="none" stroke="black" points="234,-586.5 353,-586.5 "/>
<text text-anchor="start" x="242" y="-571.3" font-family="Times,serif" font-size="14.00">create</text>
<text text-anchor="start" x="242" y="-556.3" font-family="Times,serif" font-size="14.00">destroy</text>
<text text-anchor="start" x="242" y="-541.3" font-family="Times,serif" font-size="14.00">edit</text>
<text text-anchor="start" x="242" y="-526.3" font-family="Times,serif" font-size="14.00">index</text>
<text text-anchor="start" x="242" y="-511.3" font-family="Times,serif" font-size="14.00">new</text>
<text text-anchor="start" x="242" y="-496.3" font-family="Times,serif" font-size="14.00">show</text>
<text text-anchor="start" x="242" y="-481.3" font-family="Times,serif" font-size="14.00">update</text>
<polyline fill="none" stroke="black" points="234,-473.5 353,-473.5 "/>
<polyline fill="none" stroke="black" points="234,-449.5 353,-449.5 "/>
<text text-anchor="start" x="242" y="-434.3" font-family="Times,serif" font-size="14.00">_layout</text>
<text text-anchor="start" x="242" y="-419.3" font-family="Times,serif" font-size="14.00">product_params</text>
<text text-anchor="start" x="242" y="-404.3" font-family="Times,serif" font-size="14.00">set_product</text>
</g>
<!-- CartsController -->
<g id="node8" class="node"><title>CartsController</title>
<path fill="none" stroke="black" d="M192,-72.5C192,-72.5 269,-72.5 269,-72.5 275,-72.5 281,-78.5 281,-84.5 281,-84.5 281,-348.5 281,-348.5 281,-354.5 275,-360.5 269,-360.5 269,-360.5 192,-360.5 192,-360.5 186,-360.5 180,-354.5 180,-348.5 180,-348.5 180,-84.5 180,-84.5 180,-78.5 186,-72.5 192,-72.5"/>
<text text-anchor="middle" x="230.5" y="-345.3" font-family="Times,serif" font-size="14.00">CartsController</text>
<polyline fill="none" stroke="black" points="180,-337.5 281,-337.5 "/>
<text text-anchor="start" x="188" y="-322.3" font-family="Times,serif" font-size="14.00">create</text>
<text text-anchor="start" x="188" y="-307.3" font-family="Times,serif" font-size="14.00">destroy</text>
<text text-anchor="start" x="188" y="-292.3" font-family="Times,serif" font-size="14.00">edit</text>
<text text-anchor="start" x="188" y="-277.3" font-family="Times,serif" font-size="14.00">index</text>
<text text-anchor="start" x="188" y="-262.3" font-family="Times,serif" font-size="14.00">init</text>
<text text-anchor="start" x="188" y="-247.3" font-family="Times,serif" font-size="14.00">like_sort</text>
<text text-anchor="start" x="188" y="-232.3" font-family="Times,serif" font-size="14.00">new</text>
<text text-anchor="start" x="188" y="-217.3" font-family="Times,serif" font-size="14.00">price_sort</text>
<text text-anchor="start" x="188" y="-202.3" font-family="Times,serif" font-size="14.00">search</text>
<text text-anchor="start" x="188" y="-187.3" font-family="Times,serif" font-size="14.00">show</text>
<text text-anchor="start" x="188" y="-172.3" font-family="Times,serif" font-size="14.00">time_sort</text>
<text text-anchor="start" x="188" y="-157.3" font-family="Times,serif" font-size="14.00">update</text>
<polyline fill="none" stroke="black" points="180,-149.5 281,-149.5 "/>
<polyline fill="none" stroke="black" points="180,-125.5 281,-125.5 "/>
<text text-anchor="start" x="188" y="-110.3" font-family="Times,serif" font-size="14.00">_layout</text>
<text text-anchor="start" x="188" y="-95.3" font-family="Times,serif" font-size="14.00">cart_params</text>
<text text-anchor="start" x="188" y="-80.3" font-family="Times,serif" font-size="14.00">set_cart</text>
</g>
<!-- FavoritesController -->
<g id="node9" class="node"><title>FavoritesController</title>
<path fill="none" stroke="black" d="M84,-396.5C84,-396.5 182,-396.5 182,-396.5 188,-396.5 194,-402.5 194,-408.5 194,-408.5 194,-597.5 194,-597.5 194,-603.5 188,-609.5 182,-609.5 182,-609.5 84,-609.5 84,-609.5 78,-609.5 72,-603.5 72,-597.5 72,-597.5 72,-408.5 72,-408.5 72,-402.5 78,-396.5 84,-396.5"/>
<text text-anchor="middle" x="133" y="-594.3" font-family="Times,serif" font-size="14.00">FavoritesController</text>
<polyline fill="none" stroke="black" points="72,-586.5 194,-586.5 "/>
<text text-anchor="start" x="80" y="-571.3" font-family="Times,serif" font-size="14.00">create</text>
<text text-anchor="start" x="80" y="-556.3" font-family="Times,serif" font-size="14.00">destroy</text>
<text text-anchor="start" x="80" y="-541.3" font-family="Times,serif" font-size="14.00">edit</text>
<text text-anchor="start" x="80" y="-526.3" font-family="Times,serif" font-size="14.00">index</text>
<text text-anchor="start" x="80" y="-511.3" font-family="Times,serif" font-size="14.00">new</text>
<text text-anchor="start" x="80" y="-496.3" font-family="Times,serif" font-size="14.00">show</text>
<text text-anchor="start" x="80" y="-481.3" font-family="Times,serif" font-size="14.00">update</text>
<polyline fill="none" stroke="black" points="72,-473.5 194,-473.5 "/>
<polyline fill="none" stroke="black" points="72,-449.5 194,-449.5 "/>
<text text-anchor="start" x="80" y="-434.3" font-family="Times,serif" font-size="14.00">_layout</text>
<text text-anchor="start" x="80" y="-419.3" font-family="Times,serif" font-size="14.00">favorite_params</text>
<text text-anchor="start" x="80" y="-404.3" font-family="Times,serif" font-size="14.00">set_favorite</text>
</g>
</g>
</svg>
