<?xml version="1.0" encoding="UTF-8" standalone="no"?>
<!DOCTYPE svg PUBLIC "-//W3C//DTD SVG 1.1//EN"
 "http://www.w3.org/Graphics/SVG/1.1/DTD/svg11.dtd">
<!-- Generated by graphviz version 2.36.0 (20140111.2315)
 -->
<!-- Title: models_diagram Pages: 1 -->
<svg width="549pt" height="462pt"
 viewBox="0.00 0.00 549.00 462.00" xmlns="http://www.w3.org/2000/svg" xmlns:xlink="http://www.w3.org/1999/xlink">
<g id="graph0" class="graph" transform="scale(1 1) rotate(0) translate(4 458)">
<title>models_diagram</title>
<polygon fill="none" stroke="none" points="-4,4 -4,-458 545,-458 545,4 -4,4"/>
<!-- _diagram_info -->
<g id="node1" class="node"><title>_diagram_info</title>
<text text-anchor="start" x="8" y="-409.6" font-family="Times,serif" font-size="13.00">Models diagram</text>
<text text-anchor="start" x="8" y="-395.6" font-family="Times,serif" font-size="13.00">Date: Dec 05 2015 &#45; 18:11</text>
<text text-anchor="start" x="8" y="-381.6" font-family="Times,serif" font-size="13.00">Migration version: 20151117173457</text>
<text text-anchor="start" x="8" y="-367.6" font-family="Times,serif" font-size="13.00">Generated by RailRoady 1.4.1</text>
<text text-anchor="start" x="8" y="-353.6" font-family="Times,serif" font-size="13.00">http://railroady.prestonlee.com</text>
</g>
<!-- Favorite -->
<g id="node2" class="node"><title>Favorite</title>
<path fill="none" stroke="black" d="M183.5,-158.5C183.5,-158.5 290.5,-158.5 290.5,-158.5 296.5,-158.5 302.5,-164.5 302.5,-170.5 302.5,-170.5 302.5,-267.5 302.5,-267.5 302.5,-273.5 296.5,-279.5 290.5,-279.5 290.5,-279.5 183.5,-279.5 183.5,-279.5 177.5,-279.5 171.5,-273.5 171.5,-267.5 171.5,-267.5 171.5,-170.5 171.5,-170.5 171.5,-164.5 177.5,-158.5 183.5,-158.5"/>
<text text-anchor="middle" x="237" y="-264.3" font-family="Times,serif" font-size="14.00">Favorite</text>
<polyline fill="none" stroke="black" points="171.5,-256.5 302.5,-256.5 "/>
<text text-anchor="start" x="179.5" y="-241.3" font-family="Times,serif" font-size="14.00">id :INTEGER</text>
<text text-anchor="start" x="179.5" y="-226.3" font-family="Times,serif" font-size="14.00">product_id :integer</text>
<text text-anchor="start" x="179.5" y="-211.3" font-family="Times,serif" font-size="14.00">user_id :integer</text>
<text text-anchor="start" x="179.5" y="-196.3" font-family="Times,serif" font-size="14.00">created_at :datetime</text>
<text text-anchor="start" x="179.5" y="-181.3" font-family="Times,serif" font-size="14.00">updated_at :datetime</text>
<text text-anchor="start" x="179.5" y="-166.3" font-family="Times,serif" font-size="14.00">like :integer</text>
</g>
<!-- LineItem -->
<g id="node3" class="node"><title>LineItem</title>
<path fill="none" stroke="black" d="M332.5,-0.5C332.5,-0.5 439.5,-0.5 439.5,-0.5 445.5,-0.5 451.5,-6.5 451.5,-12.5 451.5,-12.5 451.5,-109.5 451.5,-109.5 451.5,-115.5 445.5,-121.5 439.5,-121.5 439.5,-121.5 332.5,-121.5 332.5,-121.5 326.5,-121.5 320.5,-115.5 320.5,-109.5 320.5,-109.5 320.5,-12.5 320.5,-12.5 320.5,-6.5 326.5,-0.5 332.5,-0.5"/>
<text text-anchor="middle" x="386" y="-106.3" font-family="Times,serif" font-size="14.00">LineItem</text>
<polyline fill="none" stroke="black" points="320.5,-98.5 451.5,-98.5 "/>
<text text-anchor="start" x="328.5" y="-83.3" font-family="Times,serif" font-size="14.00">id :INTEGER</text>
<text text-anchor="start" x="328.5" y="-68.3" font-family="Times,serif" font-size="14.00">product_id :integer</text>
<text text-anchor="start" x="328.5" y="-53.3" font-family="Times,serif" font-size="14.00">cart_id :integer</text>
<text text-anchor="start" x="328.5" y="-38.3" font-family="Times,serif" font-size="14.00">created_at :datetime</text>
<text text-anchor="start" x="328.5" y="-23.3" font-family="Times,serif" font-size="14.00">updated_at :datetime</text>
<text text-anchor="start" x="328.5" y="-8.3" font-family="Times,serif" font-size="14.00">quantity :integer</text>
</g>
<!-- User -->
<g id="node4" class="node"><title>User</title>
<path fill="none" stroke="black" d="M244,-317C244,-317 380,-317 380,-317 386,-317 392,-323 392,-329 392,-329 392,-441 392,-441 392,-447 386,-453 380,-453 380,-453 244,-453 244,-453 238,-453 232,-447 232,-441 232,-441 232,-329 232,-329 232,-323 238,-317 244,-317"/>
<text text-anchor="middle" x="312" y="-437.8" font-family="Times,serif" font-size="14.00">User</text>
<polyline fill="none" stroke="black" points="232,-430 392,-430 "/>
<text text-anchor="start" x="240" y="-414.8" font-family="Times,serif" font-size="14.00">id :INTEGER</text>
<text text-anchor="start" x="240" y="-399.8" font-family="Times,serif" font-size="14.00">name :varchar</text>
<text text-anchor="start" x="240" y="-384.8" font-family="Times,serif" font-size="14.00">email :varchar</text>
<text text-anchor="start" x="240" y="-369.8" font-family="Times,serif" font-size="14.00">created_at :datetime</text>
<text text-anchor="start" x="240" y="-354.8" font-family="Times,serif" font-size="14.00">updated_at :datetime</text>
<text text-anchor="start" x="240" y="-339.8" font-family="Times,serif" font-size="14.00">password_digest :varchar</text>
<text text-anchor="start" x="240" y="-324.8" font-family="Times,serif" font-size="14.00">remember_digest :varchar</text>
</g>
<!-- User&#45;&gt;Favorite -->
<g id="edge1" class="edge"><title>User&#45;&gt;Favorite</title>
<path fill="none" stroke="#793212" d="M277.83,-309.282C274.715,-302.469 271.568,-295.589 268.478,-288.832"/>
<ellipse fill="none" stroke="#793212" cx="279.615" cy="-313.184" rx="4.00002" ry="4.00002"/>
<polygon fill="#793212" stroke="#793212" points="268.466,-288.805 268.399,-277.839 266.386,-284.258 264.307,-279.711 264.307,-279.711 264.307,-279.711 266.386,-284.258 260.214,-281.582 268.466,-288.805 268.466,-288.805"/>
</g>
<!-- Cart -->
<g id="node5" class="node"><title>Cart</title>
<path fill="none" stroke="black" d="M332.5,-173.5C332.5,-173.5 439.5,-173.5 439.5,-173.5 445.5,-173.5 451.5,-179.5 451.5,-185.5 451.5,-185.5 451.5,-252.5 451.5,-252.5 451.5,-258.5 445.5,-264.5 439.5,-264.5 439.5,-264.5 332.5,-264.5 332.5,-264.5 326.5,-264.5 320.5,-258.5 320.5,-252.5 320.5,-252.5 320.5,-185.5 320.5,-185.5 320.5,-179.5 326.5,-173.5 332.5,-173.5"/>
<text text-anchor="middle" x="386" y="-249.3" font-family="Times,serif" font-size="14.00">Cart</text>
<polyline fill="none" stroke="black" points="320.5,-241.5 451.5,-241.5 "/>
<text text-anchor="start" x="328.5" y="-226.3" font-family="Times,serif" font-size="14.00">id :INTEGER</text>
<text text-anchor="start" x="328.5" y="-211.3" font-family="Times,serif" font-size="14.00">created_at :datetime</text>
<text text-anchor="start" x="328.5" y="-196.3" font-family="Times,serif" font-size="14.00">updated_at :datetime</text>
<text text-anchor="start" x="328.5" y="-181.3" font-family="Times,serif" font-size="14.00">user_id :integer</text>
</g>
<!-- User&#45;&gt;Cart -->
<g id="edge2" class="edge"><title>User&#45;&gt;Cart</title>
<path fill="none" stroke="#5cfa8b" d="M345.667,-309.387C351.301,-296.901 357.038,-284.185 362.352,-272.409"/>
<ellipse fill="none" stroke="#5cfa8b" cx="343.957" cy="-313.176" rx="4.00002" ry="4.00002"/>
<ellipse fill="#5cfa8b" stroke="#5cfa8b" cx="364.132" cy="-268.465" rx="4.00002" ry="4.00002"/>
</g>
<!-- Cart&#45;&gt;LineItem -->
<g id="edge3" class="edge"><title>Cart&#45;&gt;LineItem</title>
<path fill="none" stroke="#55b10e" d="M386,-165.192C386,-154.449 386,-142.992 386,-131.765"/>
<ellipse fill="none" stroke="#55b10e" cx="386" cy="-169.297" rx="4" ry="4"/>
<polygon fill="#55b10e" stroke="#55b10e" points="386,-131.546 390.5,-121.546 386,-126.546 386,-121.546 386,-121.546 386,-121.546 386,-126.546 381.5,-121.546 386,-131.546 386,-131.546"/>
</g>
<!-- Welcome -->
<g id="node6" class="node"><title>Welcome</title>
<path fill="none" stroke="black" d="M422.5,-347C422.5,-347 529.5,-347 529.5,-347 535.5,-347 541.5,-353 541.5,-359 541.5,-359 541.5,-411 541.5,-411 541.5,-417 535.5,-423 529.5,-423 529.5,-423 422.5,-423 422.5,-423 416.5,-423 410.5,-417 410.5,-411 410.5,-411 410.5,-359 410.5,-359 410.5,-353 416.5,-347 422.5,-347"/>
<text text-anchor="middle" x="476" y="-407.8" font-family="Times,serif" font-size="14.00">Welcome</text>
<polyline fill="none" stroke="black" points="410.5,-400 541.5,-400 "/>
<text text-anchor="start" x="418.5" y="-384.8" font-family="Times,serif" font-size="14.00">id :INTEGER</text>
<text text-anchor="start" x="418.5" y="-369.8" font-family="Times,serif" font-size="14.00">created_at :datetime</text>
<text text-anchor="start" x="418.5" y="-354.8" font-family="Times,serif" font-size="14.00">updated_at :datetime</text>
</g>
</g>
</svg>
