<?xml version="1.0" encoding="UTF-8" standalone="no"?>
<!DOCTYPE svg PUBLIC "-//W3C//DTD SVG 1.1//EN"
 "http://www.w3.org/Graphics/SVG/1.1/DTD/svg11.dtd">
<!-- Generated by graphviz version 2.36.0 (20140111.2315)
 -->
<!-- Title: models_diagram Pages: 1 -->
<svg width="498pt" height="230pt"
 viewBox="0.00 0.00 498.00 230.00" xmlns="http://www.w3.org/2000/svg" xmlns:xlink="http://www.w3.org/1999/xlink">
<g id="graph0" class="graph" transform="scale(1 1) rotate(0) translate(4 226)">
<title>models_diagram</title>
<polygon fill="none" stroke="none" points="-4,4 -4,-226 494,-226 494,4 -4,4"/>
<!-- _diagram_info -->
<g id="node1" class="node"><title>_diagram_info</title>
<text text-anchor="start" x="8" y="-207.6" font-family="Times,serif" font-size="13.00">Models diagram</text>
<text text-anchor="start" x="8" y="-193.6" font-family="Times,serif" font-size="13.00">Date: Dec 05 2015 &#45; 18:11</text>
<text text-anchor="start" x="8" y="-179.6" font-family="Times,serif" font-size="13.00">Migration version: 20151117173457</text>
<text text-anchor="start" x="8" y="-165.6" font-family="Times,serif" font-size="13.00">Generated by RailRoady 1.4.1</text>
<text text-anchor="start" x="8" y="-151.6" font-family="Times,serif" font-size="13.00">http://railroady.prestonlee.com</text>
</g>
<!-- Product -->
<g id="node2" class="node"><title>Product</title>
<ellipse fill="none" stroke="black" cx="270" cy="-183" rx="38.0212" ry="18"/>
<text text-anchor="middle" x="270" y="-179.3" font-family="Times,serif" font-size="14.00">Product</text>
</g>
<!-- Favorite -->
<g id="node3" class="node"><title>Favorite</title>
<ellipse fill="none" stroke="black" cx="304" cy="-90" rx="39.9464" ry="18"/>
<text text-anchor="middle" x="304" y="-86.3" font-family="Times,serif" font-size="14.00">Favorite</text>
</g>
<!-- Product&#45;&gt;Favorite -->
<g id="edge2" class="edge"><title>Product&#45;&gt;Favorite</title>
<path fill="none" stroke="#2e958f" d="M279.281,-157.159C283.877,-144.858 289.429,-129.999 294.105,-117.482"/>
<ellipse fill="none" stroke="#2e958f" cx="277.795" cy="-161.137" rx="4.00001" ry="4.00001"/>
<polygon fill="#2e958f" stroke="#2e958f" points="294.134,-117.407 301.849,-109.615 295.884,-112.723 297.634,-108.04 297.634,-108.04 297.634,-108.04 295.884,-112.723 293.418,-106.465 294.134,-117.407 294.134,-117.407"/>
</g>
<!-- LineItem -->
<g id="node4" class="node"><title>LineItem</title>
<ellipse fill="none" stroke="black" cx="312" cy="-18" rx="43.319" ry="18"/>
<text text-anchor="middle" x="312" y="-14.3" font-family="Times,serif" font-size="14.00">LineItem</text>
</g>
<!-- Product&#45;&gt;LineItem -->
<g id="edge1" class="edge"><title>Product&#45;&gt;LineItem</title>
<path fill="none" stroke="#11a1a5" d="M259.51,-157.617C251.245,-134.625 242.949,-99.6609 255,-72 260.494,-59.3903 270.63,-48.4291 280.849,-39.7989"/>
<ellipse fill="none" stroke="#11a1a5" cx="260.978" cy="-161.48" rx="4.00001" ry="4.00001"/>
<polygon fill="#11a1a5" stroke="#11a1a5" points="281.122,-39.5831 291.761,-36.9239 285.048,-36.4868 288.974,-33.3905 288.974,-33.3905 288.974,-33.3905 285.048,-36.4868 286.188,-29.8572 281.122,-39.5831 281.122,-39.5831"/>
</g>
<!-- User -->
<g id="node5" class="node"><title>User</title>
<ellipse fill="none" stroke="black" cx="354" cy="-183" rx="26.949" ry="18"/>
<text text-anchor="middle" x="354" y="-179.3" font-family="Times,serif" font-size="14.00">User</text>
</g>
<!-- User&#45;&gt;Favorite -->
<g id="edge3" class="edge"><title>User&#45;&gt;Favorite</title>
<path fill="none" stroke="#58117b" d="M341.01,-158.359C333.99,-145.582 325.313,-129.79 318.125,-116.708"/>
<ellipse fill="none" stroke="#58117b" cx="343.135" cy="-162.225" rx="4.00002" ry="4.00002"/>
<polygon fill="#58117b" stroke="#58117b" points="318.015,-116.508 317.144,-105.577 315.608,-112.126 313.2,-107.744 313.2,-107.744 313.2,-107.744 315.608,-112.126 309.256,-109.911 318.015,-116.508 318.015,-116.508"/>
</g>
<!-- Cart -->
<g id="node6" class="node"><title>Cart</title>
<ellipse fill="none" stroke="black" cx="389" cy="-90" rx="27" ry="18"/>
<text text-anchor="middle" x="389" y="-86.3" font-family="Times,serif" font-size="14.00">Cart</text>
</g>
<!-- User&#45;&gt;Cart -->
<g id="edge4" class="edge"><title>User&#45;&gt;Cart</title>
<path fill="none" stroke="#17b3f7" d="M363.426,-157.491C368.463,-144.397 374.641,-128.332 379.664,-115.274"/>
<ellipse fill="none" stroke="#17b3f7" cx="361.855" cy="-161.576" rx="4.00001" ry="4.00001"/>
<ellipse fill="#17b3f7" stroke="#17b3f7" cx="381.185" cy="-111.318" rx="4.00001" ry="4.00001"/>
</g>
<!-- Cart&#45;&gt;LineItem -->
<g id="edge5" class="edge"><title>Cart&#45;&gt;LineItem</title>
<path fill="none" stroke="#8ef1a0" d="M367.384,-69.3494C357.849,-60.6808 346.59,-50.4456 336.723,-41.475"/>
<ellipse fill="none" stroke="#8ef1a0" cx="370.458" cy="-72.1437" rx="4.00002" ry="4.00002"/>
<polygon fill="#8ef1a0" stroke="#8ef1a0" points="336.566,-41.3327 332.194,-31.2762 332.866,-37.9693 329.167,-34.6059 329.167,-34.6059 329.167,-34.6059 332.866,-37.9693 326.139,-37.9357 336.566,-41.3327 336.566,-41.3327"/>
</g>
<!-- Welcome -->
<g id="node7" class="node"><title>Welcome</title>
<ellipse fill="none" stroke="black" cx="445" cy="-183" rx="45.244" ry="18"/>
<text text-anchor="middle" x="445" y="-179.3" font-family="Times,serif" font-size="14.00">Welcome</text>
</g>
</g>
</svg>
